<?xml version="1.0" encoding="iso-8859-1"?>
<!-- Uploaded to: SVG Repo, www.svgrepo.com, Generator: SVG Repo Mixer Tools -->
<svg version="1.1" id="Layer_1" xmlns="http://www.w3.org/2000/svg" xmlns:xlink="http://www.w3.org/1999/xlink" 
	 viewBox="0 0 512 512" xml:space="preserve">
<g>
	<polygon style="fill:#FFD311;" points="472.412,39.588 472.412,113.485 398.515,113.485 398.515,76.536 398.515,39.588 	"/>
	<rect x="29.031" y="398.515" style="fill:#FFD311;" width="73.897" height="73.897"/>
</g>
<g>
	<polygon style="fill:#7E8488;" points="504.082,219.052 504.082,292.948 430.186,292.948 430.186,256 430.186,219.052 	"/>
	<polygon style="fill:#7E8488;" points="81.814,256 81.814,292.948 7.918,292.948 7.918,219.052 81.814,219.052 	"/>
</g>
<polygon style="fill:#FFD311;" points="292.948,256 292.948,292.948 219.052,292.948 219.052,256 219.052,219.052 292.948,219.052 
	"/>
<g>
	<rect x="219.052" y="219.052" style="fill:#F8B01E;" width="73.897" height="36.948"/>
	<rect x="398.515" y="39.588" style="fill:#F8B01E;" width="73.897" height="36.948"/>
	<rect x="29.031" y="398.515" style="fill:#F8B01E;" width="73.897" height="36.948"/>
</g>
<g>
	<rect x="430.186" y="219.052" style="fill:#676D70;" width="73.897" height="36.948"/>
	<rect x="7.918" y="219.052" style="fill:#676D70;" width="73.897" height="36.948"/>
</g>
<path d="M422.268,211.134v36.948H300.866v-36.948h-37.061c0.32-16.744,4.162-58.677,32.768-89.397
	c21.654-23.254,53.261-35.73,94.025-37.145v36.81h89.732V31.67h-89.732v37.083c-45.443,1.465-80.989,15.676-105.724,42.311
	c-32.564,35.066-36.72,81.214-36.953,100.07h-36.787v36.948H89.732v-36.948H0v89.732h89.732v-36.948h121.402v36.948h36.956
	c-0.32,16.744-4.162,58.677-32.768,89.397c-22.587,24.255-60.944,36.78-104.477,37.261v-36.926H21.113v89.732h89.732v-36.97
	c48.275-0.447,90.435-14.707,116.175-42.424c32.564-35.066,36.72-81.214,36.953-100.07h36.892v-36.948h121.402v36.948H512v-89.732
	H422.268z M406.433,47.505h58.062v58.062h-58.062V47.505z M73.897,285.031H15.835v-58.062h58.062V285.031z M95.01,464.495H36.948
	v-58.062H95.01V464.495z M285.031,285.031h-58.062v-58.062h58.062V285.031z M496.165,285.031h-58.062v-58.062h58.062V285.031z"/>
<g>
	<rect x="34.309" y="248.082" style="fill:#FFFFFF;" width="21.113" height="15.835"/>
	<rect x="245.443" y="248.082" style="fill:#FFFFFF;" width="21.113" height="15.835"/>
	<rect x="55.423" y="427.546" style="fill:#FFFFFF;" width="21.113" height="15.835"/>
	<rect x="424.907" y="68.619" style="fill:#FFFFFF;" width="21.113" height="15.835"/>
	<rect x="456.577" y="248.082" style="fill:#FFFFFF;" width="21.113" height="15.835"/>
</g>
</svg>